<svg xmlns="http://www.w3.org/2000/svg" width="17" height="17" viewBox="0 0 17 17" fill="none">
    <path
        d="M13.7349 12.8633C13.7813 12.9098 13.8182 12.9649 13.8433 13.0256C13.8685 13.0863 13.8814 13.1514 13.8814 13.2171C13.8814 13.2828 13.8685 13.3478 13.8433 13.4085C13.8182 13.4692 13.7813 13.5244 13.7349 13.5708C13.6884 13.6173 13.6333 13.6541 13.5726 13.6793C13.5119 13.7044 13.4468 13.7174 13.3811 13.7174C13.3154 13.7174 13.2504 13.7044 13.1897 13.6793C13.129 13.6541 13.0738 13.6173 13.0274 13.5708L8.88114 9.42395L4.73489 13.5708C4.64107 13.6646 4.51382 13.7174 4.38114 13.7174C4.24846 13.7174 4.12121 13.6646 4.02739 13.5708C3.93357 13.477 3.88086 13.3498 3.88086 13.2171C3.88086 13.0844 3.93357 12.9571 4.02739 12.8633L8.17426 8.71707L4.02739 4.57082C3.93357 4.477 3.88086 4.34976 3.88086 4.21707C3.88086 4.08439 3.93357 3.95715 4.02739 3.86332C4.12121 3.7695 4.24846 3.7168 4.38114 3.7168C4.51382 3.7168 4.64107 3.7695 4.73489 3.86332L8.88114 8.0102L13.0274 3.86332C13.1212 3.7695 13.2485 3.7168 13.3811 3.7168C13.5138 3.7168 13.6411 3.7695 13.7349 3.86332C13.8287 3.95715 13.8814 4.08439 13.8814 4.21707C13.8814 4.34976 13.8287 4.477 13.7349 4.57082L9.58801 8.71707L13.7349 12.8633Z"
        fill="#262626" />
</svg>